# xmcd CD database file
#
# Track frame offsets:
#	150
#	36345
#	64550
#	86722
#	117052
#	139565
#	158140
#	181615
#	207587
#	241592
#
# Disc length: 3547 seconds
#
# Revision: 1
# Processed by: cddbd v1.5.2PL0 Copyright (c) Steve Scherf et al.
# Submitted via: CDex 1.50
#
DISCID=7a0dd90a
DTITLE=Kenny Drew - Impressions
DYEAR=1988
DGENRE=Jazz
TTITLE0=Impressions
TTITLE1=Evening in the Park
TTITLE2=Cafe Flore
TTITLE3=Autumn Leaves
TTITLE4=No Greater Love
TTITLE5=My Ship
TTITLE6=Rouge Blues
TTITLE7=Morning Mist
TTITLE8=Last Tango in Paris
TTITLE9=The Way We Were
EXTD=YEAR: 1988
EXTT0=
EXTT1=
EXTT2=
EXTT3=
EXTT4=
EXTT5=
EXTT6=
EXTT7=
EXTT8=
EXTT9=
PLAYORDER=
